<?xml version="1.0" encoding="utf-8"?>
<!-- Generator: Adobe Illustrator 18.0.0, SVG Export Plug-In . SVG Version: 6.00 Build 0)  -->
<!DOCTYPE svg PUBLIC "-//W3C//DTD SVG 1.1//EN" "http://www.w3.org/Graphics/SVG/1.1/DTD/svg11.dtd">
<svg version="1.1" id="Layer_1" xmlns="http://www.w3.org/2000/svg" xmlns:xlink="http://www.w3.org/1999/xlink" x="0px" y="0px"
	 viewBox="0 0 1024 768" enable-background="new 0 0 1024 768" xml:space="preserve">
<path fill="#B5B5B5" d="M53.8,705.6c-42.6-8.4-11-14.9,13.5-18.9c57-9.3,75.3-28.8,160.8-37.4c129.2-12.9,450.6,7.9,511.9,8.8
	c36.2,0.5,81.4,2.6,86.9,2.5c32.6-0.8,152.3,12.9,106.4,32.8c-49.5,21.5-46.1,29.9-95.3,34.2c-144.3,12.8-566.8,12.1-579.3,11.6
	C152.2,735.5,101.3,715,53.8,705.6z"/>
<path fill="#A9E515" d="M257.2,177.6c33-47.3,0.6-92.2,13.1-117.7c13.1-26.9,77.6-37,106.2-28.2c19.3,5.9,59.4,46.3,49.4,79.3
	c-15.7,52-85.3,9.3-128.9,73c-36.9,53.8-12.9,96.2,6.5,116.4c17.6,18.3,50.4,35.3,131.8,22.9c38.2-5.8,129.2,28.2,82.2,119.5
	c-11.2,21.8-39.5,31.7-63.1,36.1c-82.6,15.4-100.9-56.5-121.7-106.4c-9.5-22.8-36.4-35.9-63.4-34.7c-37.1,1.7-133.7,39.4-158.6-29.1
	c-28.3-77.9,47.8-99.8,68.5-105.8C197,197.7,247.8,191.1,257.2,177.6z"/>
<path fill="#0FEAE4" d="M759.4,416.2c-18.3,58.9,69.8,95.5,24.6,170.7c-18.3,30.4-60.2,48.2-115.4,19.1c-27-14.2-72.6-94.2-56-128.3
	c18.1-37.2,58.2-36,89.3-58.9c23.6-17.4,24.5-48.4,21.2-78c-3.3-29.5-9.9-45.2-16.8-58.5c-14.3-27.4-61.2-49.2-123.5-24.3
	c-37.9,15.2-110.6-14.3-89.5-96.5c9.7-37.7,61.6-76,110.2-37.4c26.5,21.1,28.3,55.7,42.3,81.9c21.9,40.8,66.4,32.6,90,31.4
	c32.4-1.6,106.9-11.2,120.5,47.6c21,90.7-54.3,86-70.4,95.9C768.3,391.7,763.6,402.4,759.4,416.2z"/>
<path fill="#083F69" d="M588.4,464.9c-31.5,80.2,51.5,113.7-8.7,203.8c-22.2,33.2-84.7,48.2-140.7,20.8
	c-41.2-20.1-56.5-99.2-34-141.5c31.2-58.9,126.2-36.2,143-130.8c5.7-32.3-3.1-55.2-17.4-77.5c-18.5-29-69.8-39-129-30.6
	c-40.4,5.7-130.4-12.6-97.5-100.2c13.7-36.4,72.6-61.6,123.7-38.2c40.4,18.5,36.4,48.5,50.2,74.7c20,37.9,47.4,38.7,75.1,37.4
	c59.6-2.9,129.3-39.6,145.7,47.7c17.2,91.5-46.5,83.8-75.6,101.7C605.8,442.9,593.7,451.4,588.4,464.9z"/>
</svg>
