<?xml version="1.0" encoding="utf-8"?>
<!-- Generator: Adobe Illustrator 18.0.0, SVG Export Plug-In . SVG Version: 6.00 Build 0)  -->
<!DOCTYPE svg PUBLIC "-//W3C//DTD SVG 1.1//EN" "http://www.w3.org/Graphics/SVG/1.1/DTD/svg11.dtd">
<svg version="1.1" id="Layer_1" xmlns="http://www.w3.org/2000/svg" xmlns:xlink="http://www.w3.org/1999/xlink" x="0px" y="0px"
	 viewBox="0 0 960 560" enable-background="new 0 0 960 560" xml:space="preserve">
<polygon fill="#38FF00" stroke="#000000" stroke-miterlimit="10" points="203.5,352.7 249.5,471.8 151.6,578.2 7.5,565.3 
	-38.5,446.2 59.4,339.8 "/>
<polygon fill="#9D9D9E" stroke="#000000" stroke-miterlimit="10" points="157,227 108,311.5 10,311.5 -39,227 10,142.5 108,142.5 
	"/>
<polygon fill="#00FFE6" stroke="#000000" stroke-miterlimit="10" points="105.6,272.7 137.1,352.8 83.4,420.1 -1.6,407.3 
	-33.1,327.2 20.6,259.9 "/>
<polygon fill="#33FFCC" stroke="#000000" stroke-miterlimit="10" points="1056,475 884.9,645.3 651.9,582.3 590,349 761.1,178.7 
	994.1,241.7 "/>
<polygon fill="#00FFDA" stroke="#000000" stroke-miterlimit="10" points="85,131 43.2,163.4 -5.8,143.4 -13,91 28.8,58.6 77.8,78.6 
	"/>
<polygon fill="#FFFF00" stroke="#000000" stroke-miterlimit="10" points="971,112 929.2,144.4 880.2,124.4 873,72 914.8,39.6 
	963.8,59.6 "/>
<polygon fill="#00FF99" stroke="#000000" stroke-miterlimit="10" points="962.4,54.4 930.8,79 893.7,63.8 888.3,24.2 919.9,-0.4 
	957,14.7 "/>
<polygon fill="#99CC00" stroke="#000000" stroke-miterlimit="10" points="1018.5,173.4 969,211.8 910.9,188.1 902.4,126 952,87.6 
	1010,111.2 "/>
<polygon fill="#0099CC" stroke="#000000" stroke-miterlimit="10" points="980,194 971.8,256.2 913.8,280.2 864,242 872.2,179.8 
	930.2,155.8 "/>
</svg>
