<?xml version="1.0" encoding="utf-8"?>
<!-- Generator: Adobe Illustrator 18.0.0, SVG Export Plug-In . SVG Version: 6.00 Build 0)  -->
<!DOCTYPE svg PUBLIC "-//W3C//DTD SVG 1.1//EN" "http://www.w3.org/Graphics/SVG/1.1/DTD/svg11.dtd">
<svg version="1.1" id="Layer_1" xmlns="http://www.w3.org/2000/svg" xmlns:xlink="http://www.w3.org/1999/xlink" x="0px" y="0px"
	 viewBox="0 0 1024 768" enable-background="new 0 0 1024 768" xml:space="preserve">
<g>
	<path fill="#FFFFFF" stroke="#FFFFFF" stroke-miterlimit="10" d="M44.6,588.9l7-42.4c1.1-7.1,2.2-14.1,3.4-21.2l3.3-21.2l3.2-21.2
		c1-7.1,2-14.1,3.1-21.2l3-21.2c0.9-7.1,1.9-14.1,2.9-21.2l2.8-21.2l2.6-21.2l2.6-21.2l2.4-21.2c0.7-7.1,1.5-14.1,2.3-21.2l2.2-21.2
		l2-21.2l1.9-21.2l35.1,2.6v32.6v32.6v16.3v8.2v3.9v1v0.5v0.3c0,0.4,0,0.8,0.1,1.3c0.1,1.8,0.4,3.1,0.6,3.5c0.2,0.6,0.2-0.3-0.9-1.6
		c-0.3-0.4-0.6-0.6-0.9-1c-0.2-0.2-0.4-0.3-0.5-0.4c-0.2-0.1-0.3-0.3-0.5-0.4l-0.1-0.1h-0.1c0.1,0.1-1.5-0.7-0.8-0.4l0.5,0.2
		l0.5,0.2c0.1,0,0.1,0,0,0l-0.2-0.1l-0.3-0.2c-1.1-0.4-1.2-0.5-1.7-0.6c-0.9-0.2-1.9-0.3-2.7-0.2c-0.8,0.1-1.3,0.2-1.5,0.3
		c-0.4,0.1,0.1-0.2,0.8-0.9c0.7-0.7,1.7-1.8,2.6-3.1c0.9-1.3,1.8-2.7,2.6-4.1l3.5-6.9l7.5-14.5l7.2-14.3c2.4-4.7,4.7-9.6,7.1-14.4
		c2.3-4.8,4.8-9.6,7-14.5l6.9-14.5c2.3-4.8,4.5-9.7,6.7-14.6c4.5-9.7,8.8-19.6,13.2-29.4c4.2-9.9,8.6-19.7,12.6-29.6
		c2-5,4.1-9.9,6.1-14.9l6-14.9c2-5,3.9-10,5.8-15c1.9-5,3.9-10,5.7-15l5.6-15l5.4-15.1c1.8-5,3.6-10.1,5.3-15.2s3.6-10.1,5.2-15.2
		l5.1-15.2c1.7-5.1,3.3-10.2,4.9-15.3c3.3-9.6,6.3-19.9,9.5-30.1l47.9,13.8l-6.5,23.2l-6.4,23.2l-6.3,23.2c-2,7.7-4.1,15.5-6.1,23.2
		c-4,15.5-7.9,31-11.6,46.5s-7.3,31-10.6,46.6c-1.6,7.8-3.3,15.6-4.8,23.4c-1.5,7.8-3.1,15.6-4.4,23.4l-2.1,11.7
		c-0.7,3.9-1.3,7.8-1.9,11.7l-1.9,11.7l-1.7,11.8l-1.7,11.8l-1.4,11.8c-0.5,3.9-1,7.9-1.4,11.8l-1.2,11.8l-0.6,5.9l-0.3,3l-0.2,3
		l-0.9,11.8l-0.5,5.9l-0.1,1.5v0.4c0,0.1,0-0.3,0,0v0.2v0.8l-0.2,3l-0.7,12.1c-0.1,2-0.2,4-0.3,5.9l-0.2,5.9
		c-0.1,3.9-0.4,7.8-0.4,11.8l-0.2,11.9c-0.1,4,0,7.9-0.1,11.9c-0.1,15.8,0.4,31.7,1.1,47.6c0.5,7.9,0.8,15.9,1.5,23.8l0.9,11.9
		l1.1,11.9l0.6,5.9l0.7,5.9l1.3,11.9l1.6,11.8l0.8,5.9l0.9,5.9l1.8,11.8l2,11.8c1.3,7.9,2.9,15.7,4.3,23.6
		c3.1,15.7,6.5,31.4,10.4,47c1.9,7.7,4,15.4,6.4,23c2.3,7.6,5,15.1,8,22.4c6.1,14.7,13.9,28.8,24,41.4c-12.1-10.8-22.2-24-30.5-38.2
		s-14.9-29.4-20.7-44.7c-2.9-7.6-5.6-15.3-8.2-23c-1.4-3.8-2.6-7.7-3.8-11.6c-1.2-3.9-2.5-7.8-3.7-11.7c-2.3-7.8-4.8-15.6-6.8-23.5
		l-3.2-11.8l-3-11.9l-1.5-6l-1.4-6l-2.7-12l-2.4-12.1l-1.2-6l-1.1-6.1c-3.1-16.1-5.4-32.4-7.5-48.7c-1.9-16.3-3.7-32.7-4.6-49.1
		c-0.6-8.2-0.9-16.4-1.3-24.7c-0.2-4.1-0.2-8.3-0.3-12.5l-0.1-6.2c0-2.1-0.1-4.2-0.1-6.2v-12.1v-3v-0.8v-1v-1.5l0.2-6.2l0.3-12.4
		l0.1-3.1l0.2-3.1l0.3-6.2l0.6-12.4c0.2-4.1,0.6-8.2,0.9-12.3l0.9-12.3l1.2-12.3l1.2-12.3l1.5-12.2c0.5-4.1,1-8.2,1.5-12.2l1.7-12.2
		c0.6-4.1,1.1-8.1,1.8-12.2l2-12.2c1.3-8.1,2.8-16.2,4.2-24.2c1.4-8.1,3.1-16.1,4.6-24.1c1.5-8.1,3.3-16,5-24
		c3.5-16,7.1-31.9,10.9-47.7c1.9-7.9,3.9-15.8,5.9-23.7l6.1-23.6l6.3-23.5l6.4-23.5L306,20.6c-3.2,10.6-6.3,21.2-9.7,31.6
		c-1.7,5.3-3.3,10.5-5.1,15.8L286,83.7c-1.7,5.2-3.6,10.4-5.4,15.6s-3.6,10.4-5.6,15.6l-5.7,15.5l-5.9,15.4c-2,5.2-4,10.3-6.1,15.4
		c-2.1,5.1-4.1,10.2-6.2,15.3l-6.4,15.3c-2.1,5.1-4.4,10.1-6.6,15.2c-4.4,10.1-9,20.1-13.6,30.2l-7.1,14.9c-2.3,5-4.8,9.9-7.2,14.9
		c-2.4,4.9-4.8,9.9-7.3,14.8l-7.5,14.7c-2.5,4.9-5.1,9.8-7.7,14.6c-2.6,4.9-5.1,9.7-7.8,14.6l-8,14.6l-8.1,14.2l-4.3,7.5
		c-1.9,3.3-4.1,6.4-6.5,9.4s-5.2,5.9-8.6,8.8c-3.4,2.8-7.4,5.6-12.9,7.8c-2.7,1.1-5.9,1.9-9.3,2.3s-7.2,0.2-10.8-0.6
		c-1.8-0.4-3.3-0.8-5.7-1.8l-0.8-0.3l-0.4-0.2l-0.2-0.1l-0.5-0.2l-0.5-0.2c0.7,0.3-1-0.5-1-0.5l-0.3-0.2l-0.6-0.3
		c-0.8-0.5-1.5-0.9-2.3-1.4c-0.7-0.5-1.5-1.1-2.2-1.7c-1.4-1.1-2.7-2.4-3.9-3.7c-4.7-5.4-7-11.3-8.1-16c-1.1-4.8-1.4-9-1.4-12.6
		c0-0.9,0-1.8,0-2.8V347v-0.5v-1l0.2-4.3l0.5-8.1l0.9-16.3l1.9-32.6l2-32.6l35.1,2.6l-3.4,21.3l-3.6,21.3l-3.8,21.2
		c-1.3,7.1-2.6,14.1-4,21.2l-4.2,21.1l-4.4,21.1l-4.6,21l-4.8,21c-1.6,7-3.3,14-5.1,20.9l-5.3,20.9c-1.8,6.9-3.6,13.9-5.5,20.8
		l-5.7,20.7l-6,20.7c-2,6.9-4.1,13.7-6.2,20.6l-6.4,20.5C49.1,575.3,46.9,582.1,44.6,588.9z"/>
</g>
<g>
	<path fill="#FFFFFF" stroke="#FFFFFF" stroke-miterlimit="10" d="M288.3,672.8c0,0-1-6.9-2.2-19c-0.6-6-1.3-13.4-1.9-21.8
		c-0.3-4.2-0.6-8.7-0.9-13.4s-0.5-9.7-0.8-14.9s-0.5-10.6-0.7-16.2c-0.2-5.6-0.4-11.4-0.6-17.3c-0.3-11.9-0.5-24.4-0.6-37.4
		c-0.1-6.5,0-13.1,0.1-19.7c0-6.7,0.1-13.4,0.3-20.2c0.2-13.6,0.7-27.4,1.2-41.2c0.6-13.8,1.3-27.6,2.2-41.2
		c0.2-3.4,0.4-6.8,0.7-10.1c0.3-3.4,0.5-6.7,0.8-10c0.5-6.6,1-13.2,1.6-19.7c1.1-12.9,2.4-25.4,3.7-37.2c0.7-5.9,1.3-11.7,2-17.2
		c0.7-5.6,1.4-10.9,2.1-16.1c0.7-5.1,1.4-10.1,2.1-14.8c0.7-4.7,1.4-9.1,2.1-13.3c1.3-8.3,2.6-15.6,3.7-21.6
		c2.2-12,3.8-18.8,3.8-18.8s0.6,7,1.3,19.1c0.3,6.1,0.6,13.4,0.9,21.9c0.3,8.4,0.5,17.9,0.7,28.3c0.1,10.4,0.2,21.6,0.2,33.4
		c0,11.9-0.1,24.4-0.3,37.3c0,6.5-0.2,13-0.4,19.7c-0.1,3.3-0.1,6.7-0.2,10c-0.1,3.4-0.2,6.7-0.3,10.1c-0.4,13.6-0.9,27.3-1.5,41.1
		c-0.6,13.8-1.3,27.5-2,41.1c-0.4,6.8-0.8,13.5-1.2,20.1c-0.4,6.6-0.8,13.2-1.3,19.6c-0.8,12.9-1.8,25.4-2.8,37.2s-2,23-3,33.3
		s-2.1,19.8-3,28.2c-1,8.4-1.9,15.7-2.7,21.7C289.5,665.9,288.3,672.8,288.3,672.8z"/>
</g>
<g>
	<path fill="#FFFFFF" stroke="#FFFFFF" stroke-miterlimit="10" d="M262.2,365.5c0,0,0-0.5-0.1-1.5c0-1-0.1-2.4,0-4.3
		c0.2-3.7,0.9-9.3,2.9-16.1c1.9-6.8,5.1-14.8,8.7-23.6c3.7-8.9,7.9-19,13.1-29.8s11.3-22.4,18.7-34.1c3.7-5.9,7.8-11.8,12.2-17.7
		l0.8-1.1l0.4-0.6l0.5-0.6c0.5-0.7,1.1-1.4,1.6-2.1c0.6-0.7,1.1-1.4,1.7-2.1c0.6-0.7,1.2-1.5,1.8-2.2c2.5-3,5-5.8,7.6-8.7
		c5.2-5.7,10.9-11.2,16.9-16.5l2.3-2l2.3-1.9c1.6-1.3,3.1-2.6,4.8-3.8c3.2-2.5,6.6-4.8,10-7.1c1.7-1.1,3.5-2.2,5.2-3.4
		c1.8-1.1,3.6-2.1,5.3-3.2c3.6-2.1,7.3-4.1,11.1-5.8c1.9-0.9,3.8-1.8,5.7-2.6l2.9-1.3c1-0.4,2-0.8,2.9-1.2l2.9-1.2l0.7-0.3l0.8-0.3
		l0.9-0.3l1-0.3c2.6-0.8,5.6-1.6,9.8-1.6c2.1,0,4.5,0.4,7.1,1.4c0.6,0.3,1.3,0.5,1.9,0.9l0.9,0.5c0.4,0.3-0.2-0.2,1,0.6l0.1,0.1
		l0.3,0.2l0.2,0.1l0.6,0.5c0.4,0.3,0.8,0.6,1.1,1c0.2,0.2,0.4,0.4,0.5,0.5l0.4,0.4c2.1,2.3,3.4,4.9,4.1,7.3c0.7,2.4,0.9,4.4,1,6.2
		s-0.1,3.3-0.2,4.7l-0.1,1l-0.1,0.7l-0.1,0.4l-0.2,1.5c-0.3,1.9-0.6,3.9-1,5.8c-0.3,1.9-0.6,3.9-1,5.8c-0.4,2-0.9,4.1-1.4,6.1
		s-0.9,4.1-1.4,6.1l-0.7,3l-0.8,2.9c-1.1,3.9-2.2,7.7-3.4,11.6c-1.3,3.8-2.7,7.5-4,11.2l-1,2.8l-1.1,2.7c-0.7,1.8-1.5,3.6-2.2,5.4
		c-0.8,1.8-1.5,3.6-2.2,5.4c-0.8,1.8-1.7,3.5-2.5,5.2s-1.7,3.4-2.5,5.1s-1.6,3.4-2.5,5.1c-1.8,3.3-3.6,6.5-5.4,9.7
		c-0.5,0.8-0.9,1.6-1.4,2.4s-1,1.5-1.4,2.3c-1,1.5-1.9,3.1-2.9,4.6c-0.9,1.5-1.9,3-2.8,4.5l-0.7,1.1l-0.8,1.1
		c-0.5,0.7-1,1.4-1.5,2.1c-2,2.8-4,5.6-5.9,8.4c-2,2.7-4.1,5.3-6.1,7.9c-4,5.2-8.3,9.8-12.2,14.4c-2,2.3-4.1,4.3-6.1,6.4
		s-4,4.1-5.9,6c-4,3.7-7.9,7.2-11.5,10.5c-3.8,3.1-7.3,6-10.6,8.6c-1.6,1.3-3.3,2.5-4.8,3.6c-1.6,1.1-3.1,2.2-4.5,3.2
		c-2.8,2-5.3,3.9-7.7,5.3c-2.3,1.4-4.2,2.7-5.8,3.6c-3.2,1.9-4.9,3-4.9,3s1.4-1.4,3.9-4.1c2.6-2.7,6.5-6.4,11-11.5
		c1.2-1.3,2.4-2.6,3.7-4c1.3-1.4,2.7-2.8,4-4.4c2.7-3.1,5.6-6.5,8.7-10.1c2.9-3.7,6.1-7.6,9.4-11.8c1.5-2.2,3.2-4.3,4.8-6.5
		c1.6-2.2,3.4-4.4,5-6.9c3.2-4.8,6.7-9.6,9.9-15c1.6-2.7,3.3-5.3,5-8c1.6-2.8,3.2-5.6,4.8-8.5c6.3-11.5,12.5-23.8,17.6-37.1
		c5.2-13.2,9.9-27,13.3-41.4l0.7-2.7l0.5-2.7c0.4-1.8,0.7-3.5,1.1-5.3s0.7-3.6,1.1-5.4c0.3-1.9,0.6-3.9,0.9-5.8
		c0.3-1.9,0.6-3.9,0.9-5.8l0.2-1.5l0.1-0.4V190c0-0.1-0.1,0.5,0,0.2l0.1-0.5c0.1-0.6,0.1-1,0.1-1.2s0-0.1,0.1,0.4s0.5,1.4,1.3,2.2
		l0.4,0.4c0.2,0.2,0.4,0.3,0.6,0.5c0.1,0.1,0.2,0.1,0.3,0.2c0.1,0-0.1-0.1-0.1-0.1l-0.3-0.2l-0.2-0.1l0.7,0.5
		c0.1,0.1,0.2,0.1,0.3,0.2c0.2,0.1,0.4,0.2,0.5,0.3c0.7,0.3,1.2,0.3,1.3,0.3c0.3,0-0.6,0-1.7,0.4l-0.4,0.1l-0.2,0.1l-0.3,0.1
		l-0.3,0.1c0.1,0-0.1,0-0.1,0L414,194l-0.6,0.2l-2.5,1l-2.5,1l-2.5,1.1c-1.7,0.7-3.3,1.4-5,2.2c-6.6,3.1-13,6.5-19.1,10.4
		c-3.1,1.9-6.1,3.9-9,6c-1.5,1-2.9,2.1-4.4,3.2l-2.2,1.6l-2.1,1.7c-2.8,2.2-5.5,4.5-8.2,6.8c-1.3,1.2-2.6,2.4-4,3.5
		c-1.3,1.2-2.6,2.4-3.9,3.6c-2.5,2.4-5,4.9-7.3,7.3l-1.8,1.8c-0.6,0.7-1.2,1.3-1.8,2c-0.6,0.7-1.2,1.3-1.8,2l-0.2,0.2l-0.1,0.1
		c0,0-0.2,0.2,0,0l-0.4,0.5l-0.8,1c-2.3,2.5-4.4,5.1-6.6,7.7c-2.1,2.6-4.2,5.2-6.2,7.8c-8,10.4-15.1,20.7-21.5,30.5
		s-12,18.9-17.1,27.1s-9.5,15.1-12.6,21.1c-1.6,3-2.8,5.7-3.9,8.2c-1,2.4-1.7,4.6-2.3,6.3c-0.5,1.8-0.9,3.1-1.1,4.1
		C262.3,365,262.2,365.5,262.2,365.5z"/>
</g>
<g>
	<path fill="#FFFFFF" stroke="#FFFFFF" stroke-miterlimit="10" d="M310.9,493.3l-0.8-2.4c-0.2-0.8-0.4-1.7-0.6-2.6
		c-0.1-0.9-0.2-1.8-0.3-2.6c0-0.9-0.1-1.8-0.1-2.7c0.1-0.9,0.1-1.8,0.2-2.7c0.1-0.9,0.2-1.8,0.4-2.7c0.2-0.9,0.4-1.8,0.7-2.7
		c0.3-0.9,0.5-1.8,0.9-2.6c0.4-0.9,0.6-1.8,1.1-2.6c0.4-0.8,0.8-1.7,1.3-2.5s0.9-1.7,1.5-2.4c0.6-0.8,1.1-1.6,1.7-2.3
		c0.6-0.7,1.2-1.5,1.9-2.2c0.7-0.7,1.3-1.4,2-2.1c0.7-0.6,1.4-1.3,2.2-2c0.8-0.6,1.5-1.2,2.3-1.8l3.6-2.7l4.2,3.8
		c1.9,1.7,3.8,3.6,5.4,5.6c0.8,1,1.5,2.1,2.3,3.2c0.7,1.1,1.3,2.2,1.9,3.4c1.2,2.3,2.1,4.6,2.9,7c0.8,2.3,1.4,4.7,1.9,7
		s0.9,4.6,1.3,6.9c0.3,2.3,0.6,4.5,0.9,6.7l0.7,6.4l0.7,6.4c0.4,4.3,0.9,8.5,1.2,12.8c0.4,4.3,0.7,8.5,1.1,12.8l0.5,6.4
		c0.1,1,0.2,2.4,0.2,4s-0.1,3.5-0.6,5.7c-0.2,1.1-0.6,2.2-1,3.4c-0.2,0.6-0.5,1.2-0.8,1.7l-0.5,0.9l-0.1,0.2l-0.1,0.1l-0.3,0.5
		l-0.1,0.2l-0.1,0.2c-0.1,0.1,0,0-0.2,0.3c-0.3,0.4-0.6,0.8-0.9,1.2c-0.4,0.4-0.5,0.6-0.8,0.9c-0.2,0.3-0.5,0.5-0.7,0.8
		c-1,1-2,1.8-3.2,2.5c-2.2,1.4-4.7,2.5-7.7,3c-2.9,0.5-6.5,0.3-9.8-1.1l-5.7-2.3l-1.6-6c-2.2-8.1-2.7-16.3-2-24
		c0.6-7.7,2.2-14.8,3.9-21.5c0.4-1.7,0.9-3.3,1.4-5l1.4-4.9c0.9-3.2,1.9-6.4,2.9-9.7c1-3.2,2.1-6.4,3.2-9.7l1.7-4.8l1.8-4.8
		c0.6-1.6,1.2-3.2,1.8-4.8c0.6-1.6,1.2-3.2,1.9-4.7c1.3-3.1,2.7-6.3,4.1-9.4s3-6.2,4.5-9.3c0.8-1.5,1.6-3,2.4-4.5s1.6-3,2.5-4.5
		c0.8-1.5,1.7-3,2.6-4.4l2.7-4.4c0.9-1.4,1.9-2.8,2.9-4.3c1-1.4,1.9-2.8,3-4.2l3.1-4.1c1.1-1.3,2.2-2.6,3.3-3.9
		c2.2-2.6,4.6-5.1,7-7.5c-1.1,3.2-2.5,6.3-3.5,9.5c-1.2,3.1-2.3,6.3-3.4,9.4s-2.1,6.3-3.1,9.4l-1.5,4.7c-0.5,1.6-0.9,3.2-1.4,4.7
		c-1,3.1-1.7,6.3-2.6,9.4c-0.8,3.2-1.7,6.3-2.4,9.5c-0.8,3.1-1.6,6.3-2.3,9.5c-0.7,3.2-1.5,6.4-2.2,9.6l-2.1,9.6l-2.1,9.6l-4.1,19.2
		c-0.6,3.1-1.2,6.2-1.7,9.1c-0.4,3-0.8,5.9-1,8.7c-0.4,5.6,0,10.9,1.3,15.7l-7.3-8.3c-1.4-0.6-2.7-0.6-3.6-0.4
		c-0.9,0.1-1.3,0.4-1.8,0.7c-0.2,0.2-0.4,0.3-0.7,0.5l-0.2,0.2l-0.3,0.3c-0.1,0.2-0.3,0.4-0.4,0.6c-0.1,0.2,0,0,0,0l0.1-0.2l0.1-0.2
		l-0.3,0.5c0,0.1-0.1,0.1-0.1,0.2c-0.1,0.1-0.1,0.2-0.1,0.3c-0.1,0.2-0.1,0.3-0.1,0.3c0,0.1,0.1-0.2,0.1-0.7c0-0.6,0-1.3,0-2.5
		l-0.1-6.4c0-4.3-0.1-8.5-0.1-12.8s0-8.6,0.1-12.8l0.1-6.4l0.1-6.4c0.1-2.1,0.1-4.1,0.1-6.1s0-3.9-0.1-5.8s-0.3-3.7-0.5-5.5
		s-0.5-3.5-1-5.2s-1-3.3-1.7-4.8c-0.7-1.6-1.6-3-2.5-4.4l7.7,1.1c-0.6,0.3-1.3,0.6-1.9,0.8c-0.6,0.3-1.3,0.6-1.9,1
		c-0.6,0.3-1.2,0.7-1.8,1.1c-0.6,0.4-1.2,0.8-1.8,1.2c-0.6,0.4-1.1,0.9-1.7,1.3s-1.1,1-1.7,1.5s-1,1.1-1.6,1.6
		c-0.5,0.5-1,1.1-1.5,1.7s-0.9,1.2-1.4,1.8c-0.5,0.6-0.8,1.3-1.2,2c-0.4,0.7-0.7,1.4-1.1,2.1s-0.6,1.4-1,2.2
		c-0.3,0.7-0.5,1.5-0.8,2.3c-0.2,0.8-0.4,1.6-0.6,2.4s-0.3,1.6-0.5,2.4L310.9,493.3z"/>
</g>
<g>
	<path fill="#FFFFFF" stroke="#FFFFFF" stroke-miterlimit="10" d="M400.4,431.8c-0.7,2.7-1.5,5.4-2.2,8.1s-1.5,5.4-2.2,8
		c-1.4,5.3-2.8,10.7-4,16c-0.5,2.7-1.1,5.3-1.5,7.9c-0.2,1.3-0.4,2.6-0.6,3.9s-0.4,2.6-0.5,3.9c-0.3,2.6-0.5,5.2-0.6,7.8l-0.1,4
		c0,1.2,0,2.4,0.1,3.7c0.1,1.3,0.1,2.5,0.2,3.8c0.1,1.2,0.2,2.5,0.3,3.7l0.2,1.8l0.3,1.8c0.2,1.2,0.4,2.4,0.7,3.6
		c0.1,0.6,0.3,1.2,0.4,1.8l0.4,1.8c0.3,1.2,0.7,2.3,1,3.5c0.4,1.1,0.8,2.3,1.2,3.4c0.5,1.1,0.9,2.2,1.4,3.2c0.5,1.1,1,2.1,1.5,3.1
		l0.8,1.5l0.9,1.5c0.6,1,1.2,1.9,1.9,2.9c0.6,1,1.4,1.8,2,2.7l0.3,0.3l0.1,0.2l0,0c-0.2-0.3,0-0.1-0.1-0.1l0,0l0.1,0.1l0.3,0.4
		l0.2,0.2l0.1,0.1c0.2,0.2,0.5,0.5,0.8,0.8c0.5,0.5,1.1,0.9,1.4,1.1c0.4,0.2,0.6,0.2,0.5,0.1c-0.1-0.1-0.4-0.2-0.8-0.2l-7.8,4.3
		l2.6-3.6c0.8-1.2,1.7-2.5,2.5-3.7c1.6-2.5,3.1-5.1,4.5-7.7l1-2l1-2c0.7-1.3,1.3-2.7,1.9-4.1c1.2-2.7,2.3-5.6,3.4-8.4l1.5-4.3
		c0.5-1.5,0.9-2.9,1.4-4.4c0.4-1.5,0.9-2.9,1.2-4.4c0.4-1.5,0.8-3,1.1-4.5c0.4-1.5,0.7-3,1-4.5s0.6-3,0.9-4.6l0.2-1l0.2-1.2l0.4-2.5
		l0.7-4.5c0.4-3.1,0.8-6.2,1.1-9.4c0.3-3.2,0.6-6.3,0.8-9.5c0.2-3.2,0.4-6.4,0.6-9.7c0.2-3.2,0.3-6.5,0.4-9.8s0.2-6.6,0.3-9.9
		c0.1-3.3,0.1-6.6,0.3-9.9l0.1-2.4c0-0.7,0-1.4,0-2c0-1.3-0.1-2.5-0.3-3.4c-0.2-1-0.3-1.7-0.6-2.3c-0.2-0.6-0.5-1-0.9-1.5l5.5,0.9
		c-0.4,0-0.8,0-1.3,0.2c-0.5,0.1-1,0.4-1.6,0.8c-1.2,0.9-2.4,2.4-3.5,4.2c-0.6,0.9-1.1,1.9-1.7,3s-1.1,2.1-1.7,3.2
		c-1.1,2.2-2.2,4.4-3.2,6.6c-0.5,1.1-1,2.2-1.5,3.4c-0.5,1.1-1,2.3-1.5,3.4s-0.9,2.3-1.4,3.5c-0.4,1.2-0.9,2.3-1.3,3.5
		c-1.7,4.7-3.3,9.5-4.7,14.4c-0.1-1.3-0.2-2.6-0.3-3.8c-0.1-1.3-0.1-2.6-0.1-3.9c0-2.6,0-5.2,0.2-7.7c0.1-2.6,0.4-5.2,0.7-7.7
		c0.3-2.6,0.7-5.1,1.2-7.7c0.2-1.3,0.5-2.6,0.8-3.8c0.3-1.3,0.6-2.5,0.9-3.8s0.7-2.6,1-3.8c0.3-1.2,0.7-2.5,1.2-3.9
		c1-2.7,2.4-5.6,4.7-8.5c1.2-1.4,2.6-2.8,4.3-3.9c1.7-1.1,3.7-2,5.7-2.5l2.5-0.6l3,1.6c2.4,1.3,4.6,3.1,6.3,5.3
		c1.7,2.2,2.9,4.5,3.7,6.7c0.8,2.2,1.3,4.4,1.6,6.4c0.2,1,0.3,2,0.4,3l0.3,2.6c0.4,3.3,0.7,6.7,1,10c0.3,3.4,0.6,6.7,0.9,10.1
		c0.2,3.4,0.4,6.8,0.6,10.2c0.1,3.4,0.3,6.9,0.3,10.3c0,3.5,0,6.9-0.2,10.4c0,1.7-0.2,3.5-0.2,5.2c-0.1,1.7-0.3,3.5-0.4,5.3
		l-0.6,5.4l-0.3,2.5l-0.2,1.2l-0.2,1.5c-0.5,3.5-1.1,7-1.9,10.5c-0.7,3.5-1.6,7-2.6,10.5c-0.5,1.7-1.1,3.5-1.6,5.2
		c-0.6,1.7-1.2,3.4-1.8,5.1c-1.3,3.4-2.6,6.8-4.2,10.1c-0.8,1.7-1.6,3.3-2.4,4.9l-1.3,2.4l-1.4,2.4c-1.8,3.2-3.8,6.3-5.9,9.3
		c-1,1.5-2.2,3-3.3,4.4c-1.1,1.5-2.3,2.9-3.5,4.3l-3.1,3.8l-4.7,0.5c-3.1,0.3-6.2-0.1-8.9-1c-2.7-0.9-5-2.2-6.9-3.6
		c-1.9-1.4-3.4-2.9-4.8-4.4c-0.7-0.8-1.3-1.5-2-2.4l-0.2-0.3l-0.2-0.2l-0.3-0.4l-0.1-0.1l-0.1-0.2v-0.1l-0.2-0.3l-0.3-0.5
		c-0.9-1.4-1.8-2.7-2.5-4.2c-0.8-1.4-1.6-2.8-2.2-4.3l-1-2.2l-0.9-2.2c-0.6-1.5-1.2-3-1.7-4.5s-0.9-3.1-1.3-4.6s-0.7-3.1-1.1-4.6
		c-0.6-3.1-1-6.2-1.2-9.3c-0.1-1.5-0.2-3.1-0.2-4.6v-2.3l0.1-2.3c0.1-3.1,0.4-6.1,0.8-9.1c0.2-1.5,0.5-3.1,0.7-4.6l0.9-4.2
		c0.7-2.9,1.5-5.7,2.4-8.5s1.9-5.5,3-8.2s2.2-5.3,3.5-7.9s2.6-5.1,3.9-7.6c1.4-2.5,2.8-4.9,4.3-7.3
		C393.9,441,397.1,436.3,400.4,431.8z"/>
</g>
<g>
	<path fill="#FFFFFF" stroke="#FFFFFF" stroke-miterlimit="10" d="M415.9,565.7c2.7,1.6,5.3,3.2,8,4.8c2.6,1.6,5.3,3.3,7.9,5
		s5.2,3.3,7.8,5c2.6,1.7,5.2,3.4,7.7,5.1c5.2,3.4,10.2,6.9,15.3,10.4l7.6,5.3c2.5,1.8,5.1,3.5,7.6,5.3l7.5,5.3l7.4,5.2
		c2.5,1.7,5,3.3,7.4,4.9l3.7,2.3l3.7,2.3l3.8,2.2l3.8,2l3.8,1.9l3.8,1.8l3.9,1.6l3.9,1.5l3.9,1.3c1.3,0.4,2.6,0.7,3.9,1.1l-14,14.7
		l-6.2-16.2c-2.1-5.4-4-10.9-6-16.3c-1.9-5.5-3.9-10.9-5.7-16.5c-1.9-5.5-3.6-11.1-5.4-16.6c-1.7-5.6-3.4-11.2-5-16.8l-2.3-8.5
		c-0.8-2.8-1.5-5.7-2.2-8.5c-1.4-5.7-2.8-11.4-4-17.2s-2.3-11.5-3.4-17.3s-1.9-11.6-2.6-17.5c-0.4-2.9-0.7-5.9-1-8.8
		s-0.5-5.9-0.8-8.8c-0.2-2.9-0.4-5.9-0.6-8.9s-0.2-5.9-0.3-8.9c-0.1-3,0-5.9-0.1-8.9c0-3,0.1-5.9,0.2-8.9s0.3-5.9,0.5-8.9
		s0.5-5.9,0.8-8.8s0.7-5.9,1.1-8.8l1.4-8.7c0.5-2.9,1.2-5.8,1.8-8.7c0.7-2.9,1.4-5.7,2.1-8.6c0.8-2.8,1.6-5.7,2.5-8.5
		s1.9-5.6,2.8-8.3l3,0.5c-0.8,3.6-1.7,7.1-2.6,10.7c-0.2-3.7-0.4-7.3-0.5-11l3,0.5l-0.7,8.6c-0.1,2.9-0.3,5.7-0.5,8.6l-0.3,8.6
		l-0.1,8.5l0.1,8.5l0.3,8.5l0.6,8.4c0.2,2.8,0.4,5.6,0.7,8.4l0.9,8.4c0.4,2.8,0.7,5.6,1.1,8.4c0.8,5.6,1.7,11.1,2.6,16.7
		c1,5.5,2.1,11.1,3.2,16.6c0.6,2.8,1.1,5.5,1.8,8.2l1.9,8.2c1.3,5.5,2.7,11,4.1,16.4c1.4,5.5,2.9,10.9,4.5,16.4
		c1.6,5.4,3.1,10.9,4.8,16.3l2.5,8.2l2.5,8.2L530,598l5.3,16.3l10.6,32.8l7.1,22l-21.1-7.3c-1.6-0.6-3.2-1.1-4.8-1.7l-4.7-1.9
		l-4.6-2.1l-4.5-2.3l-4.3-2.4l-4.2-2.6l-4.1-2.7l-4-2.8l-3.9-2.9c-1.3-1-2.5-2-3.8-3c-2.5-2-4.9-4.1-7.3-6.2c-2.4-2.1-4.7-4.2-7-6.3
		l-6.8-6.4c-2.2-2.1-4.5-4.3-6.7-6.4l-6.6-6.4c-4.4-4.3-8.8-8.6-13.1-13c-2.2-2.2-4.4-4.4-6.5-6.6c-2.2-2.2-4.3-4.4-6.5-6.7
		c-2.1-2.2-4.3-4.5-6.4-6.7C420,570.3,417.9,568,415.9,565.7z"/>
</g>
<g>
	<path fill="#FFFFFF" stroke="#FFFFFF" stroke-miterlimit="10" d="M496.9,327.4c0,0,0,0.5,0,1.4c0,0.5,0,1,0.1,1.6
		c0,0.3,0.1,0.6,0.1,1c0,0.3,0.1,0.7,0.1,1.1c0.2,1.5,0.7,3.2,1.3,4.8c0.7,1.7,1.6,3.3,2.8,4.8c0.6,0.7,1.3,1.4,1.9,2
		c0.4,0.3,0.7,0.6,1.1,0.8l0.3,0.2l0.1,0.1l0,0c0-0.1,0.1,0.1-0.1-0.1l0,0l0.1,0.1h0.2l0.1-0.1l0,0c0.1,0,0.1,0.2,0.2,0.2
		c0.6,0.3,1.2,0.4,1.3,0.1c0.1-0.1,0-0.3-0.2-0.5c-0.1-0.1-0.2-0.2-0.3-0.2l0,0l0,0l0,0c-1.4-0.1-0.4,0-0.7,0h0.3l0.6-0.1
		c0,0,0.2,0,0.1,0h-0.2c-0.1,0-0.2,0-0.3-0.1c-0.2,0-0.5,0-0.6,0c-0.2-0.1-0.3,0-0.5-0.1c-0.1,0-0.1,0-0.2,0s-0.1,0-0.2,0
		s-0.2,0-0.2,0c-0.2,0,0.1-0.5,0.4-1.1c0.4-0.6,0.9-1.6,1.4-2.7l1-2.1c0.3-0.7,0.6-1.3,0.9-1.8c0.5-1.1,0.8-2,1-2.5
		c0-0.1,0.1-0.3,0.1-0.4c0,0,0-0.1,0.1-0.1v-0.1l0,0l0,0l0,0c0,0.8,0,0.2,0,0.4l0.1-0.6c0-0.2,0,0,0,0c0,0.1,0,0.1,0,0.2
		s0,0.1,0,0.1l0,0c0.1,0,0.1,0,0.2,0s0.2,0,0.3,0c0.2,0.1,0.6,0.2,0.9,0l0,0l0,0l0,0c-0.1-0.1,1,0.5,0.5,0.3l-0.3-0.2l-0.5-0.3
		c-0.3-0.2,0,0,0.1,0s0.2,0,0.3,0c0.1,0,0.1,0,0.1,0l0,0v-0.1l-0.1-0.2c-0.2-0.3-0.8-0.6-1.5-0.7c-1.4-0.3-3.1-0.2-4.5,0.1l-0.3,0.1
		h-0.1l0,0l0,0c0.3-0.3,0.1-0.1,0.1-0.1l-0.2,0.1l-0.4,0.3c-0.1,0.1-0.3,0.2-0.4,0.2c-0.2,0.1-0.3,0.1-0.5,0.2s-0.4,0.2-0.6,0.3
		c-0.8,0.4-1.5,1-2.3,1.6c-1.5,1.2-2.7,2.6-3.8,3.7c-1.1,1.2-2,2.2-2.6,2.9c-0.6,0.7-1,1-1,1s-0.2-0.5-0.4-1.4
		c-0.2-0.9-0.6-2.2-0.8-3.9c-0.3-1.7-0.4-3.8-0.1-6.5c0.2-1.3,0.5-2.7,1-4.2c0.1-0.4,0.3-0.8,0.4-1.1c0.2-0.4,0.4-0.9,0.6-1.3
		c0.1-0.3,0.2-0.3,0.2-0.5l0.2-0.5l0.1-0.2c0.1-0.1-0.1,0.1,0.2-0.2l0,0V323l0.1-0.2l0.4-0.6c2.3-3.3,5.5-6.1,9.9-7.9
		c2.2-0.9,4.7-1.6,7.6-1.6c0.7,0,1.5,0,2.2,0l1.1,0.1l0.6,0.1c0.2,0,0.4,0.1,0.6,0.1c0.5,0.1,1,0.2,1.5,0.4c0.5,0.1,1.1,0.4,1.2,0.4
		l0.6,0.2l0.3,0.1l1.1,0.5c3.1,1.4,6,3.9,8,6.7c2,2.9,3.3,6.1,3.9,9.4c0.1,0.4,0.1,0.8,0.2,1.2c0,0.4,0.1,0.8,0.1,1.4v0.8v0.6v0.6
		l-0.1,1.5c0,0.4-0.1,0.8-0.1,1.1c-0.1,0.8-0.2,1.5-0.4,2.2c-0.6,2.8-1.5,5.2-2.4,7.2c-0.5,1-0.9,1.9-1.4,2.8
		c-0.2,0.4-0.5,0.9-0.7,1.3l-0.7,1.2c-1.1,1.9-2.4,3.9-4.2,5.9s-3.9,4-6.9,5.8c-0.8,0.4-1.5,0.8-2.4,1.2c-0.4,0.2-0.8,0.3-1.3,0.5
		c-0.5,0.1-0.9,0.3-1.4,0.4c-0.9,0.3-1.9,0.4-2.8,0.5c-0.5,0.1-1.2,0.1-1.8,0.1h-0.9h-0.5c-0.2,0-0.1,0-0.2,0l-0.6-0.1l-0.3-0.1
		c-0.3,0,0.7,0-0.7-0.1h-0.1h-0.2l-0.3-0.1c-0.9-0.2-1.8-0.4-2.7-0.7c-1.7-0.6-3.2-1.5-4.5-2.4c-2.6-1.9-4.2-4-5.4-6l-0.5-0.9
		l-0.1-0.2l-0.1-0.1l-0.1-0.3l-0.1-0.1l0,0c-0.2-0.3-0.1-0.1-0.1-0.2v-0.1l-0.2-0.4l-0.3-0.7c-0.4-0.9-0.7-1.9-1-2.9
		c-0.5-1.9-0.8-3.8-0.9-5.6c-0.2-3.6,0.5-6.7,1.5-9.2s2.3-4.4,3.5-5.8c1.2-1.3,2.4-2.3,3.2-2.7C496.5,327.6,496.9,327.4,496.9,327.4
		z"/>
</g>
<g>
	<path fill="#FFFFFF" stroke="#FFFFFF" stroke-miterlimit="10" d="M504.6,515.1c2-1.8,4.1-3.5,6.2-5.3l6.3-5.2
		c4.2-3.4,8.4-6.8,12.6-10.2l6.4-5c2.1-1.7,4.2-3.3,6.4-5c4.3-3.3,8.5-6.6,12.8-9.8c4.3-3.2,8.6-6.5,12.9-9.7
		c4.3-3.2,8.6-6.4,13-9.6l13.1-9.5l13.2-9.3l-2.9,2.8l-0.3,0.4c-0.1,0.1,0,0-0.1,0.1l0,0l0.1-0.3c0-0.2,0.1-0.3,0.1-0.5
		s0.1-0.4,0.1-0.6c0.1-0.8,0.2-1.8,0.1-2.9c0-2.1-0.5-4.5-1.2-6.9l-0.3-0.9l-0.1-0.5l-0.1-0.2c0-0.1,0.1,0.4,0,0.1V427l-0.1-0.1
		l-0.4-1.2c-0.1-0.2-0.1-0.4-0.2-0.6l-0.2-0.4l-0.3-0.7l-0.4-0.8c-0.2-0.6-0.5-1-0.8-1.5c-0.5-0.9-1.1-1.8-1.6-2.5
		c-0.6-0.7-1.1-1.3-1.7-1.7c-1.1-0.9-2.1-1.2-3.4-1.5c-1.3-0.2-3.1-0.2-5.1,0.3c-2,0.4-4.3,1.2-6.7,2.2c-2.3,1.1-4.7,2.4-7,3.8
		c-4.7,3-9.2,6.6-13.4,10.6c-2.1,2-4,4.1-5.8,6.2c-0.9,1.1-1.7,2.1-2.5,3.1c-0.4,0.5-0.7,1-1.1,1.5l-0.2,0.4l-0.1,0.2l-0.1,0.1l0,0
		c0,0,0.1-0.2,0-0.1l-0.6,1.1c-0.2,0.4-0.4,0.6-0.5,0.9l-0.5,0.8c-0.3,0.6-0.7,1.2-1,1.9c-0.6,1.2-1.3,2.5-1.9,3.8
		c-1.2,2.6-2.2,5.3-3.2,8c-1.9,5.5-3.2,11.1-4,16.8c-0.8,5.6-0.9,11.3-0.2,16.4c0.7,5.2,2.2,9.9,4.6,13.5c2.5,3.6,5.8,6.2,10.3,7.9
		c2.3,0.8,4.7,1.4,7.4,1.7c1.3,0.2,2.7,0.3,4.1,0.3c0.7,0,1.4,0.1,2.1,0h2.1l2.2-0.1c0.6,0,1.4-0.1,2-0.2c1.4-0.2,2.8-0.3,4.2-0.6
		c2.8-0.5,5.6-1.2,8.4-2.1c5.6-1.8,11-4.5,16.2-7.8c5.2-3.4,10.2-7.3,14.8-11.7c4.7-4.4,9.1-9.3,13.2-14.5
		c-1.9,6.4-4.8,12.5-8.3,18.4c-3.5,5.8-7.7,11.4-12.7,16.4c-4.9,5-10.7,9.5-17.1,13c-3.2,1.7-6.6,3.3-10.2,4.5
		c-1.8,0.6-3.6,1.2-5.4,1.6c-0.9,0.2-1.8,0.4-2.8,0.6l-1.4,0.3l-1.2,0.2l-0.3,0.1h-0.2h-0.3l-0.7,0.1l-1.4,0.2
		c-0.9,0.1-1.9,0.2-2.8,0.3c-1.9,0.1-3.8,0.2-5.8,0.2c-3.9-0.1-7.9-0.6-12-1.7c-4-1.1-8.1-2.8-11.8-5.1c-3.8-2.4-7.1-5.4-9.8-8.9
		c-2.7-3.4-4.9-7.2-6.5-11.1c-1.6-3.8-2.7-7.8-3.5-11.6c-1.4-7.8-1.5-15.4-0.9-22.8c0.3-3.7,0.9-7.4,1.6-11
		c0.7-3.6,1.6-7.2,2.7-10.7c1.1-3.5,2.4-7,3.8-10.4c0.7-1.7,1.5-3.4,2.3-5.1c0.4-0.8,0.9-1.7,1.3-2.5l0.7-1.3l0.7-1.2l0.6-1.1
		l0.9-1.5c0.6-0.9,1.1-1.7,1.7-2.5c1.1-1.6,2.3-3.2,3.6-4.6c2.4-2.9,5-5.6,7.6-8.2c5.4-5.1,11.1-9.7,17.6-13.7
		c3.2-2,6.7-3.8,10.4-5.4c3.7-1.5,7.7-2.9,12.1-3.6c4.4-0.7,9.3-0.9,14.5,0.3c5.1,1.1,10.2,3.9,14,7.4c1.9,1.8,3.5,3.7,4.9,5.6
		c1.3,2,2.4,4,3.4,5.9c0.4,1,0.9,2,1.2,3l0.6,1.5l0.5,1.6l0.2,0.8l0.2,0.6l0.3,1.2l0.1,0.5l0.1,0.4l0.2,0.7l0.3,1.5
		c0.8,4,1.3,8.1,1.1,12.6c-0.1,2.2-0.4,4.5-1,6.9c-0.1,0.6-0.3,1.2-0.5,1.8c-0.2,0.6-0.4,1.2-0.6,1.8c-0.1,0.3-0.3,0.6-0.4,1
		c-0.1,0.3-0.3,0.6-0.5,1c-0.2,0.3-0.3,0.7-0.6,1.1l-0.4,0.6l-0.2,0.4l-0.1,0.2l-0.3,0.4l-1.2,1.8l-1.7,1l-14,8.1l-14,8
		c-4.7,2.7-9.4,5.2-14.1,7.9c-4.7,2.6-9.4,5.2-14.2,7.8c-4.7,2.6-9.5,5.1-14.3,7.6c-2.4,1.3-4.8,2.5-7.2,3.7l-7.2,3.7
		c-4.8,2.5-9.6,4.9-14.5,7.3l-7.3,3.5C509.5,512.9,507,514,504.6,515.1z"/>
</g>
<g>
	<path fill="#FFFFFF" stroke="#FFFFFF" stroke-miterlimit="10" d="M716.3,392.3c0,0-0.3-0.1-0.8-0.3c-0.5-0.3-1.3-0.7-2.3-1.4
		c-1.9-1.3-4.5-3.5-7.6-6.2c-3.2-2.7-6.9-6.1-11.3-9.4c-2.2-1.6-4.5-3.3-6.9-4.4c-1.2-0.5-2.3-0.9-3.1-1c-0.4,0-0.7,0-0.8,0.1
		s-0.1,0.2,0,0.3c0.1,0.1,0.2,0.1,0.2,0.2s-0.1,0.3-0.3,0.7l0,0c-0.1,0.1,0.1-0.1,0-0.1l-0.1,0.2l-0.2,0.3c-0.1,0.2-0.2,0.4-0.3,0.5
		l-0.5,1c-0.3,0.7-0.7,1.5-1,2.2c-1.4,3.1-2.7,6.6-3.8,10.2c-2.4,7.3-4.5,15.1-6.2,23.3c-1.7,8.2-3,16.7-3.5,25.2
		c-0.6,8.5-0.4,17,0.9,25c1.3,8,3.8,15.3,7.7,21.2c0.5,0.7,1,1.5,1.5,2.2c0.3,0.4,0.5,0.7,0.8,1l0.4,0.5l0.2,0.3
		c-0.6-0.7-0.1-0.1-0.2-0.3l0.1,0.1l0.1,0.2l0.3,0.3l0.1,0.2l0.1,0.1l0,0l-0.1-0.1l0,0l0,0l0.1,0.1c0.1,0.1,0.1,0.1,0.2,0.2
		c0.3,0.3,0.7,0.5,1.1,0.8c0.9,0.5,2.2,1,3.6,1.3c1.4,0.3,3.1,0.6,4.7,0.7c3.4,0.2,7,0,10.4-0.6c1.7-0.3,3.4-0.7,4.9-1.1
		c0.4-0.1,0.8-0.2,1.1-0.3h0.1c0,0,0.2-0.1-0.1,0l0.2-0.1l0.4-0.1l0.7-0.3c1-0.4,1.9-0.7,2.9-1.1c1.7-0.7,3.4-1.2,5.1-2
		c1.7-0.7,3.4-1.4,5-2.2c3.3-1.5,6.4-3.1,9.4-4.7c1.5-0.8,2.9-1.6,4.3-2.4c1.4-0.8,2.7-1.7,4.1-2.5c1.3-0.8,2.6-1.6,3.8-2.5
		c1.2-0.8,2.4-1.7,3.6-2.4c4.6-3.2,8.5-6.3,11.7-8.9s5.6-4.8,7.3-6.3s2.6-2.3,2.6-2.3s-0.5,1.1-1.4,3.2c-0.5,1-1.1,2.3-1.9,3.8
		c-0.7,1.5-1.7,3.1-2.8,5c-2.2,3.7-5.1,8-8.8,12.7c-0.9,1.2-2,2.3-3,3.6c-1.1,1.2-2.2,2.4-3.3,3.7c-1.2,1.2-2.4,2.4-3.7,3.7
		c-1.3,1.2-2.6,2.5-4,3.7c-2.9,2.4-5.9,4.9-9.2,7.3c-1.6,1.2-3.4,2.3-5.2,3.5c-1.7,1.2-3.8,2.3-5.6,3.4c-0.9,0.5-1.8,1-2.7,1.5
		l-0.7,0.4l-0.3,0.2l-0.2,0.1l-0.4,0.2c-0.6,0.3-1.2,0.6-1.7,0.8c-2.3,1.1-4.7,1.9-7.1,2.7c-4.9,1.5-9.9,2.5-15.4,2.7
		c-2.7,0.1-5.6,0-8.6-0.4s-6.1-1.2-9.4-2.5c-1.6-0.7-3.3-1.5-4.9-2.6c-0.4-0.2-0.8-0.5-1.2-0.8l-0.6-0.4l-0.3-0.2l-0.4-0.3
		c-0.5-0.4-0.9-0.8-1.4-1.2l-0.7-0.7l-0.2-0.2l-0.1-0.1c-0.2-0.2,0.3,0.3-0.4-0.4l-0.4-0.4l-0.7-0.8c-0.5-0.5-1-1.1-1.4-1.6
		c-0.9-1.1-1.8-2.2-2.7-3.4c-1.7-2.3-3.2-4.8-4.5-7.3c-1.4-2.5-2.5-5.1-3.5-7.7s-1.9-5.3-2.6-8c-0.7-2.7-1.3-5.4-1.7-8
		c-1.8-10.7-1.6-21.3-0.4-31.3c1.2-10,3.4-19.6,6.2-28.5c2.8-9,6.3-17.3,10.3-25c2-3.8,4.1-7.5,6.5-11.1c0.6-0.9,1.2-1.8,1.9-2.6
		c0.4-0.5,0.7-0.9,1.1-1.4c0.2-0.3,0.3-0.4,0.5-0.6l0.2-0.3l0.4-0.4c0.9-1.1,2.1-2.3,3.5-3.3s3.1-1.8,4.9-2.3
		c1.8-0.4,3.6-0.5,5.2-0.3c1.6,0.2,3,0.7,4.2,1.2c2.4,1,4.1,2.3,5.7,3.6c3,2.6,5.1,5.2,7,7.6c3.7,4.9,6.2,9.4,8.3,13.1
		s3.6,6.6,4.7,8.4c0.6,0.9,1.1,1.6,1.4,2.1C716.1,392.1,716.3,392.3,716.3,392.3z"/>
</g>
<g>
	<g>
		<path fill="#FFFFFF" stroke="#FFFFFF" stroke-miterlimit="10" d="M783.9,159.6c0,0,0.3,1.7,0.9,4.8c0.6,3.1,1.4,7.7,2.3,13.6
			c0.9,5.9,2,13,3.1,21.1c1.1,8.2,2.3,17.4,3.5,27.4s2.5,20.9,3.7,32.4c0.6,5.7,1.2,11.7,1.8,17.7c0.3,3,0.6,6.1,0.9,9.1
			c0.3,3.1,0.6,6.2,0.9,9.3c1.2,12.5,2.3,25.5,3.5,38.6s2.3,26.4,3.6,39.7c0.6,6.6,1.3,13.2,2.1,19.7c0.4,3.3,0.8,6.5,1.2,9.6
			c0.5,3.2,0.9,6.4,1.4,9.6s1,6.3,1.5,9.3s1.1,6,1.8,8.9s1.4,5.7,2.3,8.4c0.4,1.4,0.9,2.7,1.3,4l0.2,0.5v0.1c-0.1-0.1,0,0.1,0,0.1
			l0.1,0.3l0.3,0.9c0.2,0.6,0.5,1.1,0.7,1.7c1,2.2,2.1,4.2,3.3,5.8c0.6,0.8,1.2,1.5,1.9,2.1c0.6,0.6,1.3,1.1,2,1.5
			c0.3,0.2,0.7,0.4,1.1,0.6c0.2,0.1,0.4,0.2,0.6,0.2l0.3,0.1c0.3,0.1-0.4,0-0.2,0h0.1l0.3,0.1l1,0.2c0.1,0,0.3,0.1,0.4,0.1
			c0.1,0,0.4,0.1,0.6,0.1c0.2,0,0.5,0.1,0.7,0.1c1.9,0.2,4.1,0,6.4-0.6c2.3-0.5,4.7-1.4,7.1-2.4l0.9-0.4c0.1,0-0.2,0.1,0,0l0.1-0.1
			l0.2-0.1l0.5-0.3c0.5-0.3,1-0.6,1.5-0.9c1.1-0.7,2.2-1.4,3.3-2.1c4.4-2.9,8.6-6,12.6-9c8.1-5.9,15.5-11.5,22-16.5
			s12.2-9.3,16.8-13c4.6-3.6,8.3-6.5,10.7-8.5c2.5-2,3.7-3.1,3.7-3.1s-1,1.4-3.1,3.8s-5.1,5.9-9.2,10.2c-4,4.3-9,9.5-14.8,15.4
			s-12.4,12.4-19.8,19.4c-3.7,3.5-7.6,7.1-11.9,10.7c-1.1,0.9-2.2,1.8-3.4,2.7l-1,0.7c-0.3,0.2-0.7,0.5-0.9,0.7l-1,0.7l-0.9,0.7
			c-2.5,1.8-5.1,3.6-8.2,5.1c-3.1,1.5-6.6,2.8-10.7,3.4c-0.5,0.1-1,0.1-1.5,0.2c-0.5,0-1,0.1-1.6,0.1s-1.2,0-1.9,0l-1.2-0.1h-0.3
			h-0.1c0,0-0.7-0.1-0.5-0.1l-0.8-0.1c-0.5-0.1-1.1-0.2-1.6-0.3c-1.1-0.2-2.2-0.5-3.2-0.9c-2.1-0.7-4.2-1.7-6-2.9
			c-1.9-1.2-3.6-2.5-5.1-4c-3.1-2.9-5.6-6.1-7.6-9.4c-0.5-0.8-1-1.7-1.4-2.5l-0.7-1.3l-0.1-0.3l-0.2-0.4l-0.3-0.6
			c-0.8-1.6-1.6-3.2-2.3-4.9c-1.5-3.3-2.7-6.6-3.7-10c-1.1-3.4-2-6.8-2.9-10.1c-0.8-3.4-1.6-6.8-2.2-10.1c-0.3-1.7-0.6-3.3-0.9-5
			c-0.3-1.7-0.6-3.4-0.9-5.1c-0.5-3.4-1-6.8-1.4-10.2c-0.9-6.8-1.6-13.6-2.2-20.4c-1.2-13.6-2.1-27.1-2.8-40.4
			c-0.6-13.3-1.1-26.4-1.3-39c-0.1-3.2-0.1-6.3-0.2-9.4c0-3.1,0-6.2-0.1-9.2c0-6.1-0.1-12,0-17.8c0.1-11.6,0.3-22.6,0.6-32.7
			c0.3-10.1,0.7-19.4,1.2-27.6c0.4-8.2,0.9-15.4,1.4-21.3c0.4-5.9,0.9-10.6,1.2-13.7C783.8,161.3,783.9,159.6,783.9,159.6z"/>
	</g>
	<g>
		<path fill="#FFFFFF" stroke="#FFFFFF" stroke-miterlimit="10" d="M721.5,380.9c0,0,2.2-2.2,6.3-5.7c2.1-1.7,4.6-3.8,7.5-6
			s6.3-4.7,9.9-7.3c7.4-5.2,16.1-10.8,25.7-16.4c9.6-5.6,20.1-11.1,30.7-16.2c10.7-5.1,21.5-9.8,31.9-13.7c10.4-3.9,20.3-7.2,29-9.6
			c4.3-1.2,8.4-2.2,12-3s6.8-1.5,9.4-1.9c5.3-1,8.4-1.2,8.4-1.2s-2.2,2.3-6.3,5.8c-2,1.8-4.5,3.8-7.4,6.1c-2.9,2.3-6.2,4.8-9.9,7.4
			c-7.3,5.2-16.1,10.9-25.7,16.6c-9.6,5.6-20.1,11.1-30.8,16.2s-21.6,9.7-32,13.6s-20.4,7.1-29.1,9.4c-4.4,1.2-8.4,2.2-12,2.9
			c-3.6,0.8-6.8,1.4-9.4,1.8C724.7,380.6,721.5,380.9,721.5,380.9z"/>
	</g>
</g>
<path fill="#FFFFFF" stroke="#FFFFFF" stroke-miterlimit="10" d="M36.6,601.7"/>
</svg>
